<svg width="48" height="48" viewBox="0 0 48 48" fill="none" xmlns="http://www.w3.org/2000/svg">
<path d="M11.52 22.467V22.4545V9.97353L11.4048 9.88809H11.3952L8.77441 7.94889C7.17121 6.75849 4.88641 6.8161 3.46561 8.2177C2.51521 9.1585 1.92001 10.4641 1.92001 11.9137V15.3716L11.52 22.467ZM36.48 22.4545V22.467L46.08 15.3716V11.9137C46.08 10.4833 45.504 9.17769 44.5632 8.23689C43.1616 6.83817 40.9488 6.67401 39.3562 7.85001L36.5952 9.88809L36.48 9.97353V22.4545ZM13.44 23.8734L23.4298 31.2577C23.7687 31.5083 24.2323 31.5083 24.5712 31.2577L34.56 23.8734V11.3924L24 19.2001L13.44 11.3924V23.8734ZM36.48 24.8535V39.3601C36.48 39.89 36.9101 40.3201 37.44 40.3201H43.68C45.0058 40.3201 46.08 39.2459 46.08 37.9201V17.7572L36.48 24.8535ZM11.52 24.8535L1.92001 17.7572V37.9201C1.92001 39.2459 2.99425 40.3201 4.32001 40.3201H10.56C11.0899 40.3201 11.52 39.89 11.52 39.3601V24.8535Z" fill="white"/>
</svg>
